<svg width="285" height="167" viewBox="0 0 285 167" fill="none" xmlns="http://www.w3.org/2000/svg">
<path d="M3.84 78V1.2H26.976L33.312 30.288L34.56 65.328H37.056L38.208 30.288L44.64 1.2H67.68V78H53.28V54.384L56.064 13.872H53.472L49.44 55.344L43.488 78H28.032L22.176 55.344L18.048 13.872H15.552L18.24 54.384V78H3.84ZM95.3393 78.96C88.2993 78.96 83.1953 77.472 80.0273 74.496C76.8913 71.52 75.2433 66.576 75.0833 59.664C75.0193 56.528 74.9713 53.264 74.9393 49.872C74.9073 46.48 74.8913 43.04 74.8913 39.552C74.8913 36.064 74.9073 32.624 74.9393 29.232C74.9713 25.84 75.0193 22.576 75.0833 19.44C75.2433 12.56 76.8913 7.648 80.0273 4.704C83.1953 1.72799 88.2993 0.239994 95.3393 0.239994C102.411 0.239994 107.483 1.72799 110.555 4.704C113.627 7.648 115.275 12.56 115.499 19.44C115.627 22.64 115.723 25.936 115.787 29.328C115.851 32.72 115.883 36.16 115.883 39.648C115.883 43.104 115.851 46.528 115.787 49.92C115.723 53.28 115.627 56.528 115.499 59.664C115.275 66.576 113.627 71.52 110.555 74.496C107.483 77.472 102.411 78.96 95.3393 78.96ZM95.3393 67.248C97.2273 67.248 98.6513 66.832 99.6113 66C100.571 65.136 101.067 63.92 101.099 62.352C101.259 59.088 101.371 55.504 101.435 51.6C101.499 47.696 101.531 43.68 101.531 39.552C101.531 35.424 101.499 31.408 101.435 27.504C101.371 23.6 101.259 20.016 101.099 16.752C101.067 15.216 100.555 14.032 99.5633 13.2C98.5713 12.368 97.1633 11.952 95.3393 11.952C93.5153 11.952 92.0913 12.368 91.0673 13.2C90.0753 14.032 89.5473 15.216 89.4833 16.752C89.3553 20.016 89.2433 23.6 89.1473 27.504C89.0833 31.408 89.0513 35.424 89.0513 39.552C89.0513 43.68 89.0833 47.696 89.1473 51.6C89.2433 55.504 89.3553 59.088 89.4833 62.352C89.5473 63.92 90.0753 65.136 91.0673 66C92.0913 66.832 93.5153 67.248 95.3393 67.248ZM122.996 78V1.2H142.484C149.684 1.2 154.884 2.736 158.084 5.808C161.316 8.848 162.996 13.872 163.124 20.88C163.22 25.328 163.284 29.552 163.316 33.552C163.348 37.552 163.348 41.552 163.316 45.552C163.284 49.552 163.22 53.776 163.124 58.224C162.996 65.264 161.316 70.32 158.084 73.392C154.884 76.464 149.684 78 142.484 78H122.996ZM137.396 65.328H142.484C144.5 65.328 146.036 64.864 147.092 63.936C148.148 63.008 148.692 61.68 148.724 59.952C148.82 56.528 148.884 53.12 148.916 49.728C148.98 46.336 149.012 42.944 149.012 39.552C149.012 36.16 148.98 32.768 148.916 29.376C148.884 25.952 148.82 22.544 148.724 19.152C148.692 17.456 148.148 16.16 147.092 15.264C146.036 14.336 144.5 13.872 142.484 13.872H137.396V65.328ZM170.528 78V1.2H203.744V13.872H184.928V32.592H202.784V45.264H184.928V65.328H203.744V78H170.528ZM209.715 78V1.2H228.243C235.411 1.2 240.579 2.656 243.747 5.568C246.947 8.448 248.659 13.232 248.883 19.92C248.947 21.712 248.979 23.28 248.979 24.624C249.011 25.968 249.011 27.312 248.979 28.656C248.979 30 248.947 31.568 248.883 33.36C248.755 37.52 248.051 40.928 246.771 43.584C245.523 46.24 243.571 48.272 240.915 49.68L249.939 78H234.675L227.379 52.08H224.115V78H209.715ZM224.115 39.408H228.243C230.259 39.408 231.779 38.944 232.803 38.016C233.827 37.088 234.387 35.792 234.483 34.128C234.579 32.56 234.643 30.928 234.675 29.232C234.707 27.504 234.707 25.792 234.675 24.096C234.643 22.368 234.579 20.72 234.483 19.152C234.387 17.456 233.827 16.16 232.803 15.264C231.779 14.336 230.259 13.872 228.243 13.872H224.115V39.408ZM255.465 78V1.2H276.297L282.057 25.68L287.337 65.328H289.833L287.145 34.128L285.993 1.2H299.913V78H278.025L272.265 52.848L268.329 13.776H265.641L268.137 48.528L269.385 78H255.465ZM0.96 166L11.616 89.2H34.272L44.928 166H30.144L28.512 149.968H17.376L15.744 166H0.96ZM18.72 137.296H27.168L25.44 120.304L24.288 101.872H21.6L20.448 120.304L18.72 137.296ZM49.6838 166V89.2H68.2118C75.3798 89.2 80.5478 90.656 83.7158 93.568C86.9158 96.448 88.6278 101.232 88.8518 107.92C88.9158 109.712 88.9478 111.28 88.9478 112.624C88.9798 113.968 88.9798 115.312 88.9478 116.656C88.9478 118 88.9158 119.568 88.8518 121.36C88.7238 125.52 88.0198 128.928 86.7398 131.584C85.4918 134.24 83.5398 136.272 80.8838 137.68L89.9078 166H74.6438L67.3478 140.08H64.0838V166H49.6838ZM64.0838 127.408H68.2118C70.2278 127.408 71.7478 126.944 72.7718 126.016C73.7958 125.088 74.3558 123.792 74.4518 122.128C74.5478 120.56 74.6118 118.928 74.6438 117.232C74.6758 115.504 74.6758 113.792 74.6438 112.096C74.6118 110.368 74.5478 108.72 74.4518 107.152C74.3558 105.456 73.7958 104.16 72.7718 103.264C71.7478 102.336 70.2278 101.872 68.2118 101.872H64.0838V127.408ZM104.506 166V101.872H92.1698V89.2H131.242V101.872H118.906V166H104.506ZM175.873 166.96C171.041 166.96 167.169 166.32 164.257 165.04C161.345 163.728 159.217 161.664 157.873 158.848C156.529 156 155.777 152.272 155.617 147.664C155.521 144.976 155.441 141.92 155.377 138.496C155.345 135.04 155.329 131.488 155.329 127.84C155.329 124.192 155.345 120.672 155.377 117.28C155.441 113.888 155.521 110.896 155.617 108.304C155.809 103.44 156.593 99.536 157.969 96.592C159.377 93.648 161.521 91.52 164.401 90.208C167.313 88.896 171.137 88.24 175.873 88.24C182.593 88.24 187.489 89.728 190.561 92.704C193.665 95.648 195.425 100.56 195.841 107.44C195.937 108.912 195.985 110.672 195.985 112.72C195.985 114.736 195.937 116.496 195.841 118H181.441C181.537 116.208 181.585 114 181.585 111.376C181.585 108.72 181.537 106.512 181.441 104.752C181.345 103.216 180.817 102.032 179.857 101.2C178.897 100.368 177.569 99.952 175.873 99.952C174.017 99.952 172.593 100.368 171.601 101.2C170.641 102.032 170.113 103.216 170.017 104.752C169.825 108.112 169.681 111.744 169.585 115.648C169.489 119.52 169.441 123.488 169.441 127.552C169.441 131.616 169.489 135.6 169.585 139.504C169.681 143.376 169.825 146.992 170.017 150.352C170.113 151.92 170.641 153.136 171.601 154C172.593 154.832 174.017 155.248 175.873 155.248C177.697 155.248 179.153 154.832 180.241 154C181.361 153.136 181.985 151.92 182.113 150.352C182.177 149.616 182.209 148.656 182.209 147.472C182.241 146.256 182.241 145.056 182.209 143.872C182.209 142.656 182.177 141.68 182.113 140.944H176.833V128.464H196.129C196.289 131.376 196.353 134.576 196.321 138.064C196.289 141.52 196.193 144.72 196.033 147.664C195.713 154.576 193.985 159.52 190.849 162.496C187.745 165.472 182.753 166.96 175.873 166.96ZM199.804 166L210.46 89.2H233.116L243.772 166H228.988L227.356 149.968H216.22L214.588 166H199.804ZM217.564 137.296H226.012L224.284 120.304L223.132 101.872H220.444L219.292 120.304L217.564 137.296ZM248.528 166V89.2H262.928V153.328H281.84V166H248.528ZM287.153 166V89.2H301.553V153.328H320.465V166H287.153ZM325.778 166V89.2H358.994V101.872H340.178V120.592H358.034V133.264H340.178V153.328H358.994V166H325.778ZM364.965 166V89.2H383.493C390.661 89.2 395.829 90.656 398.997 93.568C402.197 96.448 403.909 101.232 404.133 107.92C404.197 109.712 404.229 111.28 404.229 112.624C404.261 113.968 404.261 115.312 404.229 116.656C404.229 118 404.197 119.568 404.133 121.36C404.005 125.52 403.301 128.928 402.021 131.584C400.773 134.24 398.821 136.272 396.165 137.68L405.189 166H389.925L382.629 140.08H379.365V166H364.965ZM379.365 127.408H383.493C385.509 127.408 387.029 126.944 388.053 126.016C389.077 125.088 389.637 123.792 389.733 122.128C389.829 120.56 389.893 118.928 389.925 117.232C389.957 115.504 389.957 113.792 389.925 112.096C389.893 110.368 389.829 108.72 389.733 107.152C389.637 105.456 389.077 104.16 388.053 103.264C387.029 102.336 385.509 101.872 383.493 101.872H379.365V127.408ZM418.151 166V147.76V147.664L403.751 89.2H418.439L422.567 107.824L424.007 130.384H426.695L428.135 107.824L432.263 89.2H446.951L432.551 147.664V147.76V166H418.151Z" fill="#fff"/>
</svg>
